Coordinates
version=1
nRows=17
nColumns=40
inDegrees=yes

Units are S.I. units (second, meters, Newtons, ...)
If the header above contains a line with 'inDegrees', this indicates whether rotational values are in degrees (yes) or radians (no).

endheader
time	pelvis_tilt	pelvis_list	pelvis_rotation	pelvis_tx	pelvis_ty	pelvis_tz	hip_flexion_r	hip_adduction_r	hip_rotation_r	knee_angle_r	knee_angle_r_beta	ankle_angle_r	subtalar_angle_r	mtp_angle_r	hip_flexion_l	hip_adduction_l	hip_rotation_l	knee_angle_l	knee_angle_l_beta	ankle_angle_l	subtalar_angle_l	mtp_angle_l	lumbar_extension	lumbar_bending	lumbar_rotation	arm_flex_r	arm_add_r	arm_rot_r	elbow_flex_r	pro_sup_r	wrist_flex_r	wrist_dev_r	arm_flex_l	arm_add_l	arm_rot_l	elbow_flex_l	pro_sup_l	wrist_flex_l	wrist_dev_l
      0.29500000	     -3.41224667	    -12.79705693	     -0.45814788	     -0.19125858	      0.92389018	      0.25942822	      9.30655522	     16.24750063	     -8.30119888	      8.59460922	      0.15000423	     -4.62762173	    -13.77214787	      0.00000000	     21.06694170	    -32.02231969	    -11.48207266	     77.27101059	      1.34863355	     -9.84608830	    -12.21200300	      0.00000000	      4.12291340	     15.16137768	     -3.06585037	     43.48028771	    -16.03773752	     43.48028771	     75.50805277	     44.99319607	      0.00000000	      0.00000000	     43.48028771	    -16.03773752	     43.48028771	     75.50805277	     44.99319607	      0.00000000	      0.00000000
      0.30000000	     -3.39704870	    -12.54420923	     -0.64373969	     -0.18482568	      0.92492302	      0.25956363	      8.52376693	     16.00459393	     -8.24384689	      8.15310909	      0.14229860	     -4.43136464	    -13.05499157	      0.00000000	     21.82466228	    -31.62535408	    -11.48706603	     77.21439344	      1.34764540	     -8.85701609	    -11.82136718	      0.00000000	      4.09828985	     14.85843582	     -2.93034238	     43.48148687	    -16.03638433	     43.48148687	     75.50675577	     44.99324421	      0.00000000	      0.00000000	     43.48148687	    -16.03638433	     43.48148687	     75.50675577	     44.99324421	      0.00000000	      0.00000000
      0.30500000	     -2.85059751	    -12.03465240	     -0.49202654	     -0.17810718	      0.92693754	      0.25880077	      7.25021806	     15.31868988	     -9.00879379	      7.83104058	      0.13667744	     -3.99060780	    -11.16060810	      0.00000000	     21.89767910	    -30.74792281	    -11.49985758	     76.83873193	      1.34108887	     -7.95024300	    -11.54574653	      0.00000000	      3.43239557	     14.31276850	     -2.87709059	     43.48749252	    -16.02961798	     43.48749252	     75.50029548	     44.99348065	      0.00000000	      0.00000000	     43.48749252	    -16.02961798	     43.48749252	     75.50029548	     44.99348065	      0.00000000	      0.00000000
      0.31000000	     -2.43660488	    -11.38503896	     -0.51549297	     -0.17147995	      0.92878154	      0.25847317	      6.20069864	     14.50074297	     -9.68744336	      7.71766723	      0.13469870	     -3.43581165	     -9.27903729	      0.00000000	     21.95257043	    -29.76123162	    -11.72898273	     76.32019747	      1.33203873	     -7.10716948	    -11.36246364	      0.00000000	      2.87109854	     13.41362214	     -2.72486497	     43.49630688	    -16.01971566	     43.49630688	     75.49090690	     44.99381565	      0.00000000	      0.00000000	     43.49630688	    -16.01971566	     43.49630688	     75.49090690	     44.99381565	      0.00000000	      0.00000000
      0.31500000	     -2.46291627	    -11.14558522	     -0.70569644	     -0.16514254	      0.92951257	      0.25843773	      5.54041522	     14.24288377	     -9.61655831	      7.38642999	      0.12891752	     -3.26472291	     -8.76169065	      0.00000000	     22.70993165	    -29.37838873	    -11.84316703	     76.08105069	      1.32786483	     -6.14156007	    -11.05478500	      0.00000000	      2.89666150	     13.23980561	     -2.64319009	     43.49718713	    -16.01872916	     43.49718713	     75.48997702	     44.99384814	      0.00000000	      0.00000000	     43.49718713	    -16.01872916	     43.49718713	     75.48997702	     44.99384814	      0.00000000	      0.00000000
      0.32000000	     -2.47291178	    -11.05989893	     -0.91936722	     -0.15885537	      0.93018915	      0.25852265	      4.97526542	     14.14353057	     -9.74240260	      7.26039683	      0.12671783	     -3.15118549	     -8.59548998	      0.00000000	     23.44849670	    -29.25531349	    -12.04633026	     75.73405095	      1.32180854	     -5.74204854	    -10.94812347	      0.00000000	      2.79284119	     13.18592738	     -2.61740390	     43.49739230	    -16.01849934	     43.49739230	     75.48976060	     44.99385568	      0.00000000	      0.00000000	     43.49739230	    -16.01849934	     43.49739230	     75.48976060	     44.99385568	      0.00000000	      0.00000000
      0.32500000	     -1.52032977	    -10.11330666	     -0.62054855	     -0.15190437	      0.93288441	      0.25724816	      3.17252284	     12.93393251	    -10.52337699	      6.71832418	      0.11725688	     -2.72502896	     -5.92254753	      0.00000000	     22.72270045	    -27.71912134	    -12.30690664	     74.77151351	      1.30500910	     -4.43679549	    -10.29680553	      0.00000000	      1.73927022	     12.21044274	     -2.33639170	     43.50236556	    -16.01293268	     43.50236556	     75.48452957	     44.99403638	      0.00000000	      0.00000000	     43.50236556	    -16.01293268	     43.50236556	     75.48452957	     44.99403638	      0.00000000	      0.00000000
      0.33000000	     -1.12777842	     -9.13742248	     -0.86547258	     -0.14542420	      0.93459011	      0.25730689	      2.32718359	     11.72438117	    -11.11504485	      6.94986351	      0.12129800	     -2.09450507	     -4.13307615	      0.00000000	     22.47046215	    -26.45177714	    -13.04745178	     73.82263291	      1.28844801	     -3.75417513	    -10.16177817	      0.00000000	      1.17010857	     10.94741580	     -1.98473439	     43.50990076	    -16.00452009	     43.50990076	     75.47667356	     44.99430165	      0.00000000	      0.00000000	     43.50990076	    -16.00452009	     43.50990076	     75.47667356	     44.99430165	      0.00000000	      0.00000000
      0.33500000	     -1.11920165	     -8.89983383	     -0.94882255	     -0.13900224	      0.93514474	      0.25698617	      1.69509946	     11.43547340	    -11.16203143	      6.67612091	      0.11652029	     -1.91694194	     -3.62912680	      0.00000000	     23.09607451	    -26.00152495	    -13.17349691	     73.22598578	      1.27803455	     -2.93401527	     -9.74096494	      0.00000000	      1.19208979	     10.74615128	     -1.89961683	     43.51109750	    -16.00318689	     43.51109750	     75.47543502	     44.99434269	      0.00000000	      0.00000000	     43.51109750	    -16.00318689	     43.51109750	     75.47543502	     44.99434269	      0.00000000	      0.00000000
      0.34000000	     -0.42783383	     -7.83148225	     -1.09771223	     -0.13248848	      0.93730110	      0.25673488	      0.50584967	     10.09614700	    -11.76517312	      6.80539471	      0.11877654	     -1.41641288	     -1.81593899	      0.00000000	     22.41999371	    -24.56724693	    -13.98035640	     71.98029997	      1.25629323	     -2.33151363	     -9.59845877	      0.00000000	      0.29887239	      9.49452767	     -1.54011771	     43.51947797	    -15.99386882	     43.51947797	     75.46681956	     44.99462328	      0.00000000	      0.00000000	     43.51947797	    -15.99386882	     43.51947797	     75.46681956	     44.99462328	      0.00000000	      0.00000000
      0.34500000	     -0.46282554	     -7.66053582	     -1.17824068	     -0.12625629	      0.93760880	      0.25636315	     -0.02053749	      9.87318764	    -11.74350929	      6.59990114	      0.11519001	     -1.21123616	     -1.44934320	      0.00000000	     23.09395288	    -24.18866604	    -14.09326429	     71.28418281	      1.24414369	     -1.54576415	     -9.19885666	      0.00000000	      0.31775063	      9.39936114	     -1.50438499	     43.52032338	    -15.99293090	     43.52032338	     75.46595693	     44.99465084	      0.00000000	      0.00000000	     43.52032338	    -15.99293090	     43.52032338	     75.46595693	     44.99465084	      0.00000000	      0.00000000
      0.35000000	      0.04046701	     -6.97688886	     -1.19150359	     -0.11973748	      0.93905927	      0.25588569	     -1.12945650	      9.02015820	    -12.11362245	      6.40005447	      0.11170202	     -1.04989995	     -0.34341982	      0.00000000	     22.83762896	    -23.18791847	    -14.58191557	     70.12289176	      1.22387534	     -0.95043927	     -8.63033104	      0.00000000	     -0.35366047	      8.62526804	     -1.25262773	     43.52379392	    -15.98908381	     43.52379392	     75.46242609	     44.99476278	      0.00000000	      0.00000000	     43.52379392	    -15.98908381	     43.52379392	     75.46242609	     44.99476278	      0.00000000	      0.00000000
      0.35500000	      0.52950198	     -6.07452172	     -1.45672313	     -0.11338796	      0.94053754	      0.25590958	     -2.04736378	      7.89158983	    -12.39040107	      6.58664443	      0.11495863	     -0.54181735	      0.79287617	      0.00000000	     22.39045574	    -21.98918434	    -15.37144556	     68.76420772	      1.20016183	     -0.43539889	     -8.56038097	      0.00000000	     -0.98875949	      7.49278929	     -0.90390645	     43.52922805	    -15.98307148	     43.52922805	     75.45693343	     44.99493403	      0.00000000	      0.00000000	     43.52922805	    -15.98307148	     43.52922805	     75.45693343	     44.99493403	      0.00000000	      0.00000000
      0.36000000	      0.45792757	     -5.96457757	     -1.55462090	     -0.10727779	      0.94061204	      0.25548291	     -2.44133316	      7.72044677	    -12.31824635	      6.53400892	      0.11403997	     -0.35062971	      1.01798001	      0.00000000	     23.04051952	    -21.65688189	    -15.49652572	     67.86411622	      1.18445227	      0.11402826	     -8.25664140	      0.00000000	     -0.92089378	      7.51968049	     -0.93770137	     43.52982768	    -15.98240910	     43.52982768	     75.45633058	     44.99495257	      0.00000000	      0.00000000	     43.52982768	    -15.98240910	     43.52982768	     75.45633058	     44.99495257	      0.00000000	      0.00000000
      0.36500000	      0.56078293	     -5.51252852	     -1.54956524	     -0.10080416	      0.94098762	      0.25498124	     -3.10730843	      7.17351343	    -12.42793698	      6.32938491	      0.11046861	     -0.09979029	      1.45391335	      0.00000000	     23.33492795	    -20.89197716	    -15.74154520	     66.72001631	      1.16448396	      0.84357894	     -7.60153393	      0.00000000	     -0.97237984	      7.08246741	     -0.77302587	     43.53113041	    -15.98097051	     43.53113041	     75.45502235	     44.99499269	      0.00000000	      0.00000000	     43.53113041	    -15.98097051	     43.53113041	     75.45502235	     44.99499269	      0.00000000	      0.00000000
      0.37000000	      1.40558864	     -4.30802654	     -1.97257099	     -0.09457130	      0.94301838	      0.25537415	     -4.33827563	      5.66475738	    -12.68356388	      6.58293752	      0.11489393	      0.37755290	      2.75816559	      0.00000000	     22.19933755	    -19.39549497	    -16.92353007	     64.85893579	      1.13200198	      1.02287694	     -7.61257490	      0.00000000	     -2.18214013	      5.43816546	     -0.25120090	     43.53650215	    -15.97504690	     43.53650215	     75.44965418	     44.99515522	      0.00000000	      0.00000000	     43.53650215	    -15.97504690	     43.53650215	     75.44965418	     44.99515522	      0.00000000	      0.00000000
      0.37500000	      1.50346740	     -3.86295873	     -2.07504946	     -0.08836532	      0.94325998	      0.25504959	     -4.83385166	      5.07784340	    -12.89278560	      6.67324837	      0.11647016	      0.68817561	      3.27347191	      0.00000000	     22.42562764	    -18.65897618	    -17.25244837	     63.54834634	      1.10912788	      1.49246569	     -7.15993806	      0.00000000	     -2.34984786	      4.94678875	     -0.10956235	     43.53968430	    -15.97154447	     43.53968430	     75.44649474	     44.99524930	      0.00000000	      0.00000000	     43.53968430	    -15.97154447	     43.53968430	     75.44649474	     44.99524930	      0.00000000	      0.00000000
